<?xml version="1.0" standalone="no"?>
<!DOCTYPE svg PUBLIC "-//W3C//DTD SVG 20010904//EN"
 "http://www.w3.org/TR/2001/REC-SVG-20010904/DTD/svg10.dtd">
<svg version="1.0" xmlns="http://www.w3.org/2000/svg"
 width="213.000000pt" height="459.000000pt" viewBox="0 0 213.000000 459.000000"
 preserveAspectRatio="xMidYMid meet">

<g transform="translate(0.000000,459.000000) scale(0.100000,-0.100000)"
fill="#0B6D76" stroke="none">
<path d="M1454 4582 c-10 -6 -21 -37 -30 -80 -1 -7 -11 -25 -21 -40 -10 -15
-21 -34 -25 -42 -5 -12 -7 -11 -7 3 -1 10 -6 15 -11 12 -6 -4 -8 -10 -5 -15 3
-5 1 -11 -4 -14 -8 -5 -8 15 -1 34 1 3 2 8 1 13 0 4 4 6 10 5 6 -2 15 4 20 12
12 21 48 100 45 100 -1 0 -40 -15 -87 -34 l-84 -34 -36 -84 c-42 -97 -111
-216 -179 -308 -61 -83 -240 -257 -347 -338 -192 -145 -470 -305 -607 -348
l-56 -18 2 -385 3 -385 25 -6 c14 -4 51 -10 83 -13 l57 -7 0 413 0 413 52 18
c79 27 273 123 306 151 16 14 32 22 35 19 3 -3 8 0 13 7 4 8 3 10 -4 5 -7 -4
-12 -5 -12 -2 0 6 238 166 246 166 4 0 3 -6 -2 -13 -5 -7 -1 -5 8 5 9 11 19
18 21 16 11 -8 164 119 262 217 120 119 200 225 271 359 82 154 104 229 58
198z m-69 -81 c-21 -43 -29 -39 -8 4 9 19 18 33 21 31 2 -2 -4 -18 -13 -35z"/>
<path d="M1958 4533 c6 -2 18 -2 25 0 6 3 1 5 -13 5 -14 0 -19 -2 -12 -5z"/>
<path d="M1379 4453 c-13 -16 -12 -17 4 -4 9 7 17 15 17 17 0 8 -8 3 -21 -13z"/>
<path d="M1275 3229 c-28 -27 -78 -71 -112 -97 l-63 -47 0 -1465 0 -1465 98
-77 c84 -68 102 -78 137 -78 29 0 36 3 25 10 -13 9 -13 10 0 10 13 0 13 1 0
10 -13 9 -13 10 0 10 10 0 11 3 4 8 -12 7 -27 85 -15 78 4 -3 7 4 7 14 0 10
-4 16 -8 14 -4 -3 -9 652 -10 1455 -1 1686 -1 1671 -8 1671 -3 0 -28 -23 -55
-51z m-6 -26 c-3 -21 2 -44 9 -39 5 3 9 -1 9 -9 0 -11 -4 -12 -14 -4 -7 6 -13
18 -13 26 0 8 -4 11 -10 8 -6 -4 -4 -17 5 -35 10 -19 11 -31 5 -35 -6 -4 -10
-3 -9 2 3 20 -2 34 -10 28 -6 -3 -8 -14 -6 -25 2 -11 0 -22 -4 -24 -16 -10 -5
73 13 93 20 22 27 26 25 14z"/>
</g>
</svg>
