<?xml version="1.0" standalone="no"?>
<!DOCTYPE svg PUBLIC "-//W3C//DTD SVG 20010904//EN"
 "http://www.w3.org/TR/2001/REC-SVG-20010904/DTD/svg10.dtd">
<svg version="1.0" xmlns="http://www.w3.org/2000/svg"
 width="55.000000pt" height="62.000000pt" viewBox="0 0 55.000000 62.000000"
 preserveAspectRatio="xMidYMid meet">

<g transform="translate(0.000000,62.000000) scale(0.100000,-0.100000)"
fill="#000000" stroke="none">
<path d="M108 567 c-48 -29 -92 -62 -97 -75 -7 -13 -11 -93 -11 -191 0 -146 2
-172 17 -190 21 -26 83 -42 121 -32 l27 7 5 161 c4 120 9 164 20 178 8 9 47
40 88 67 69 47 84 69 50 76 -8 1 -61 -27 -119 -63 -112 -70 -163 -84 -157 -43
5 32 102 89 140 81 29 -6 29 -5 26 32 -2 21 -7 40 -13 41 -5 2 -49 -20 -97
-49z"/>
<path d="M303 475 c-45 -30 -87 -64 -93 -74 -6 -11 -10 -88 -10 -178 0 -177 5
-193 65 -213 51 -17 80 -7 185 68 l95 68 0 169 c0 144 -2 170 -15 173 -9 1
-53 -25 -100 -59 -123 -90 -180 -109 -180 -59 0 27 104 95 143 92 25 -2 27 1
27 33 0 49 -19 46 -117 -20z m197 -139 c0 -17 -15 -35 -52 -63 -77 -57 -78
-58 -78 -30 0 19 15 36 62 71 34 25 63 46 65 46 2 0 3 -11 3 -24z"/>
</g>
</svg>
