<?xml version="1.0" standalone="no"?>
<!DOCTYPE svg PUBLIC "-//W3C//DTD SVG 20010904//EN"
 "http://www.w3.org/TR/2001/REC-SVG-20010904/DTD/svg10.dtd">
<svg version="1.0" xmlns="http://www.w3.org/2000/svg"
 width="512.000000pt" height="512.000000pt" viewBox="0 0 512.000000 512.000000"
 preserveAspectRatio="xMidYMid meet">

<g transform="translate(0.000000,512.000000) scale(0.100000,-0.100000)"
fill="#ffbf00" stroke="none">
<path d="M2030 5084 c0 -55 -20 -172 -42 -249 -101 -351 -372 -622 -723 -723
-77 -22 -194 -42 -249 -42 l-36 0 0 -450 0 -450 53 0 c64 0 192 15 312 36 187
33 425 120 593 217 45 26 84 47 87 47 3 0 5 -578 5 -1285 l0 -1285 -525 0
-525 0 0 -450 0 -450 1575 0 1575 0 0 450 0 450 -450 0 -450 0 0 2110 0 2110
-600 0 -600 0 0 -36z"/>
</g>
</svg>
