<?xml version="1.0" standalone="no"?>
<!DOCTYPE svg PUBLIC "-//W3C//DTD SVG 20010904//EN"
 "http://www.w3.org/TR/2001/REC-SVG-20010904/DTD/svg10.dtd">
<svg version="1.0" xmlns="http://www.w3.org/2000/svg"
 width="75.000000pt" height="64.000000pt" viewBox="0 0 75.000000 64.000000"
 preserveAspectRatio="xMidYMid meet">

<g transform="translate(0.000000,64.000000) scale(0.100000,-0.100000)"
fill="#000000" stroke="none">
<path d="M16 624 c-14 -13 -16 -54 -16 -295 0 -174 4 -288 10 -300 10 -18 25
-19 355 -19 189 0 350 3 359 6 14 5 16 42 16 309 0 267 -2 304 -16 309 -9 3
-168 6 -354 6 -294 0 -341 -2 -354 -16z m644 -300 l0 -235 -47 3 -48 3 -101
175 c-70 120 -107 175 -119 175 -12 0 -39 -37 -81 -110 -34 -60 -67 -111 -73
-113 -6 -2 -16 8 -22 22 -16 34 -34 33 -49 -4 -7 -16 -18 -35 -26 -41 -12 -10
-14 16 -14 168 0 99 3 183 7 186 3 4 134 7 290 7 l283 0 0 -236z"/>
<path d="M495 499 c-52 -30 -62 -93 -20 -134 50 -51 135 -17 135 55 0 21 -8
47 -17 59 -22 25 -71 35 -98 20z"/>
</g>
</svg>
