<?xml version="1.0" standalone="no"?>
<!DOCTYPE svg PUBLIC "-//W3C//DTD SVG 20010904//EN"
 "http://www.w3.org/TR/2001/REC-SVG-20010904/DTD/svg10.dtd">
<svg version="1.0" xmlns="http://www.w3.org/2000/svg"
 width="69.000000pt" height="68.000000pt" viewBox="0 0 69.000000 68.000000"
 preserveAspectRatio="xMidYMid meet">

<g transform="translate(0.000000,68.000000) scale(0.100000,-0.100000)"
fill="#000000" stroke="none">
<path d="M25 655 l-25 -24 0 -252 c0 -235 1 -256 21 -295 15 -31 32 -48 63
-63 39 -19 60 -21 274 -21 347 0 332 -15 332 323 0 212 -1 226 -21 251 -18 23
-28 26 -80 26 -47 0 -59 3 -59 15 0 9 -11 27 -25 40 -24 25 -24 25 -240 25
-216 0 -216 0 -240 -25z m453 -317 l2 -278 -185 0 c-184 0 -186 0 -210 25
l-25 24 0 256 0 255 208 -2 207 -3 3 -277z m150 -22 c3 -242 0 -256 -44 -256
-51 0 -54 13 -54 254 0 122 3 226 7 230 4 4 25 6 48 4 l40 -3 3 -229z"/>
<path d="M163 505 c-11 -29 12 -36 108 -33 86 3 94 5 94 23 0 18 -8 20 -98 23
-82 2 -98 0 -104 -13z"/>
<path d="M173 364 c-18 -8 -16 -41 3 -48 24 -9 167 -7 182 3 8 5 12 17 10 27
-3 17 -14 19 -93 21 -50 1 -96 -1 -102 -3z"/>
<path d="M163 195 c-11 -29 12 -36 108 -33 86 3 94 5 94 23 0 18 -8 20 -98 23
-82 2 -98 0 -104 -13z"/>
</g>
</svg>
