<?xml version="1.0" standalone="no"?>
<!DOCTYPE svg PUBLIC "-//W3C//DTD SVG 20010904//EN"
 "http://www.w3.org/TR/2001/REC-SVG-20010904/DTD/svg10.dtd">
<svg version="1.0" xmlns="http://www.w3.org/2000/svg"
 width="56.000000pt" height="71.000000pt" viewBox="0 0 56.000000 71.000000"
 preserveAspectRatio="xMidYMid meet">

<g transform="translate(0.000000,71.000000) scale(0.100000,-0.100000)"
fill="#000000" stroke="none">
<path d="M12 698 c-9 -9 -12 -83 -12 -273 0 -221 2 -264 16 -283 22 -32 225
-132 267 -132 38 0 62 21 72 61 6 26 10 27 81 31 60 3 78 8 96 26 23 22 23 26
23 278 l0 256 -28 24 c-28 24 -29 24 -266 24 -171 0 -240 -3 -249 -12z m483
-293 l0 -240 -67 -3 -68 -3 0 173 c0 117 -4 181 -13 198 -8 16 -45 42 -102 72
l-90 48 170 -3 170 -2 0 -240z m-310 167 l110 -57 3 -223 c2 -186 0 -223 -12
-228 -8 -3 -61 18 -118 48 l-103 53 -3 233 c-1 127 1 232 5 232 5 -1 58 -26
118 -58z"/>
</g>
</svg>
